<svg xmlns="http://www.w3.org/2000/svg" viewBox="0 0 800 500" role="img" aria-labelledby="title desc">
  <title id="title">Android Settings</title><desc id="desc">Menu Settings dengan About phone disorot.</desc>
  <defs><linearGradient id="bg" x2="1" y2="1"><stop stop-color="#0e263b"/><stop offset="1" stop-color="#0a1727"/></linearGradient><linearGradient id="a" x2="1"><stop stop-color="#31dfd1"/><stop offset="1" stop-color="#6682ff"/></linearGradient></defs>
  <rect width="800" height="500" rx="34" fill="url(#bg)"/><circle cx="690" cy="80" r="130" fill="#6682ff" opacity=".08"/>
  <rect x="232" y="42" width="336" height="416" rx="38" fill="#071321" stroke="#b6d8ff" stroke-opacity=".2" stroke-width="2"/><rect x="350" y="57" width="100" height="13" rx="7" fill="#172b40"/>
  <text x="270" y="112" fill="#f5f9ff" font-family="Segoe UI,Arial" font-size="24" font-weight="700">Settings</text>
  <g font-family="Segoe UI,Arial" font-size="15" fill="#cbd7e7"><circle cx="283" cy="159" r="20" fill="#31dfd1" opacity=".16"/><path d="M274 159h18M283 150v18" stroke="#31dfd1" stroke-width="3" stroke-linecap="round"/><text x="320" y="165">Connections</text><circle cx="283" cy="220" r="20" fill="#6682ff" opacity=".15"/><rect x="276" y="212" width="14" height="17" rx="3" fill="none" stroke="#8fa4ff" stroke-width="2"/><text x="320" y="226">Apps</text></g>
  <rect x="257" y="273" width="286" height="72" rx="16" fill="url(#a)" opacity=".14" stroke="#31dfd1" stroke-width="2"/><circle cx="283" cy="309" r="20" fill="#31dfd1" opacity=".18"/><text x="277" y="316" fill="#31dfd1" font-family="Segoe UI,Arial" font-size="20" font-weight="800">i</text><text x="320" y="304" fill="#f5f9ff" font-family="Segoe UI,Arial" font-size="16" font-weight="700">About phone</text><text x="320" y="326" fill="#9fb1c8" font-family="Segoe UI,Arial" font-size="12">Device information</text>
  <path d="M604 307h62" stroke="#31dfd1" stroke-width="3" stroke-linecap="round"/><path d="m654 296 12 11-12 11" fill="none" stroke="#31dfd1" stroke-width="3" stroke-linecap="round" stroke-linejoin="round"/><text x="610" y="278" fill="#9ff7ed" font-family="Segoe UI,Arial" font-size="13" font-weight="700">Pilih ini</text>
</svg>
