<svg xmlns="http://www.w3.org/2000/svg" viewBox="0 0 640 420" role="img" aria-labelledby="title desc">
  <title id="title">Buka Pengaturan Android</title><desc id="desc">Ilustrasi ponsel Android dengan daftar menu Pengaturan.</desc>
  <defs><linearGradient id="bg" x1="0" y1="0" x2="1" y2="1"><stop stop-color="#10243d"/><stop offset="1" stop-color="#07111f"/></linearGradient><linearGradient id="glow" x1="0" x2="1"><stop stop-color="#2ce1d1"/><stop offset="1" stop-color="#7b6cff"/></linearGradient></defs>
  <rect width="640" height="420" rx="32" fill="url(#bg)"/><circle cx="510" cy="76" r="118" fill="#5b7cff" opacity=".12"/><circle cx="126" cy="356" r="110" fill="#2ce1d1" opacity=".1"/>
  <rect x="200" y="30" width="240" height="360" rx="34" fill="#050b14" stroke="#8ca8d0" stroke-opacity=".35" stroke-width="3"/><rect x="214" y="48" width="212" height="324" rx="24" fill="#0d1b2e"/><rect x="280" y="38" width="80" height="8" rx="4" fill="#273a55"/>
  <text x="238" y="88" fill="#f5f9ff" font-family="Segoe UI,Arial" font-size="22" font-weight="700">Pengaturan</text>
  <g font-family="Segoe UI,Arial" font-size="13" fill="#dbe8fa"><circle cx="244" cy="124" r="14" fill="url(#glow)"/><text x="270" y="129">Koneksi &amp; berbagi</text><line x1="238" y1="148" x2="402" y2="148" stroke="#9db0c8" stroke-opacity=".16"/><circle cx="244" cy="174" r="14" fill="#5b7cff"/><text x="270" y="179">Tentang ponsel</text><line x1="238" y1="198" x2="402" y2="198" stroke="#9db0c8" stroke-opacity=".16"/><circle cx="244" cy="224" r="14" fill="#9b6cff"/><text x="270" y="229">Setelan tambahan</text><line x1="238" y1="248" x2="402" y2="248" stroke="#9db0c8" stroke-opacity=".16"/><circle cx="244" cy="274" r="14" fill="#2ce1d1"/><text x="270" y="279">Privasi &amp; keamanan</text></g>
  <rect x="228" y="312" width="184" height="38" rx="12" fill="#2ce1d1" fill-opacity=".1" stroke="#2ce1d1" stroke-opacity=".35"/><text x="320" y="336" text-anchor="middle" fill="#72f5e7" font-family="Segoe UI,Arial" font-size="13" font-weight="700">Mulai dari menu Settings</text>
</svg>
