<svg xmlns="http://www.w3.org/2000/svg" viewBox="0 0 800 500" role="img" aria-labelledby="title desc">
  <title id="title">Shortcut Desktop MirrorSync</title><desc id="desc">Desktop Windows dengan shortcut MirrorSync disorot.</desc>
  <defs><linearGradient id="bg" x2="1" y2="1"><stop stop-color="#173859"/><stop offset="1" stop-color="#081421"/></linearGradient><linearGradient id="a" x2="1"><stop stop-color="#31dfd1"/><stop offset="1" stop-color="#6682ff"/></linearGradient></defs><rect width="800" height="500" rx="34" fill="url(#bg)"/><circle cx="660" cy="80" r="170" fill="#6682ff" opacity=".12"/><path d="M0 445h800v55H0z" fill="#071321" opacity=".9"/><rect x="367" y="458" width="24" height="24" fill="#31dfd1"/><path d="M380 458v24M367 470h24" stroke="#071321" stroke-width="2"/>
  <rect x="86" y="76" width="126" height="145" rx="18" fill="#fff" opacity=".08" stroke="#31dfd1" stroke-width="2"/><rect x="116" y="96" width="66" height="66" rx="19" fill="url(#a)"/><path d="M161 117h-21a12 12 0 0 0-12 12v2m23-24 12 10-12 10M137 143h18" fill="none" stroke="#071321" stroke-width="5" stroke-linecap="round" stroke-linejoin="round"/><text x="106" y="190" fill="#f5f9ff" font-family="Segoe UI,Arial" font-size="14" font-weight="700">MirrorSync</text><path d="m191 205 50 35" stroke="#31dfd1" stroke-width="3" stroke-linecap="round"/><text x="250" y="251" fill="#9ff7ed" font-family="Segoe UI,Arial" font-size="16" font-weight="700">Buka dari shortcut ini</text>
</svg>
