<svg xmlns="http://www.w3.org/2000/svg" viewBox="0 0 640 420" role="img" aria-labelledby="title desc">
  <title id="title">Aktifkan Developer Options</title><desc id="desc">Ilustrasi halaman Tentang Ponsel dengan Build Number diketuk tujuh kali.</desc>
  <defs><linearGradient id="bg" x1="0" y1="0" x2="1" y2="1"><stop stop-color="#141d3b"/><stop offset="1" stop-color="#07111f"/></linearGradient><linearGradient id="accent" x1="0" x2="1"><stop stop-color="#9b6cff"/><stop offset="1" stop-color="#2ce1d1"/></linearGradient></defs>
  <rect width="640" height="420" rx="32" fill="url(#bg)"/><path d="M64 300C170 212 210 96 366 60c92-21 166 10 220 72" fill="none" stroke="#9b6cff" stroke-opacity=".12" stroke-width="80"/>
  <rect x="182" y="30" width="276" height="360" rx="34" fill="#050b14" stroke="#8ca8d0" stroke-opacity=".3" stroke-width="3"/><rect x="196" y="48" width="248" height="324" rx="24" fill="#0c192a"/>
  <text x="222" y="86" fill="#f5f9ff" font-family="Segoe UI,Arial" font-size="21" font-weight="700">Tentang ponsel</text><rect x="218" y="108" width="204" height="72" rx="18" fill="url(#accent)" fill-opacity=".13" stroke="#9b6cff" stroke-opacity=".32"/><text x="238" y="138" fill="#aebfd6" font-family="Segoe UI,Arial" font-size="12">Versi perangkat</text><text x="238" y="161" fill="#f5f9ff" font-family="Segoe UI,Arial" font-size="17" font-weight="700">Android 14</text>
  <g font-family="Segoe UI,Arial"><text x="220" y="220" fill="#9db0c8" font-size="12">Build Number / MIUI Version</text><rect x="216" y="232" width="208" height="58" rx="14" fill="#9b6cff" fill-opacity=".12" stroke="#b592ff" stroke-width="2"/><text x="238" y="267" fill="#f1eaff" font-size="17" font-weight="700">UP1A.231005.007</text><circle cx="420" cy="246" r="34" fill="#2ce1d1" fill-opacity=".16" stroke="#2ce1d1" stroke-width="2"/><text x="420" y="252" text-anchor="middle" fill="#72f5e7" font-size="18" font-weight="800">7x</text><text x="320" y="332" text-anchor="middle" fill="#c9d6e8" font-size="13">Ketuk sampai mode developer aktif</text></g>
</svg>
