<svg xmlns="http://www.w3.org/2000/svg" viewBox="0 0 640 420" role="img" aria-labelledby="title desc">
  <title id="title">Perangkat terdeteksi di MirrorSync</title><desc id="desc">Ilustrasi dashboard MirrorSync dengan perangkat terhubung dan tombol Start Mirror.</desc>
  <defs><linearGradient id="bg" x1="0" y1="0" x2="1" y2="1"><stop stop-color="#0b1d34"/><stop offset="1" stop-color="#07111f"/></linearGradient><linearGradient id="btn" x1="0" x2="1"><stop stop-color="#2ce1d1"/><stop offset="1" stop-color="#5b7cff"/></linearGradient></defs>
  <rect width="640" height="420" rx="32" fill="url(#bg)"/><rect x="52" y="54" width="536" height="312" rx="24" fill="#0a1626" stroke="#8eacd3" stroke-opacity=".24" stroke-width="2"/><rect x="52" y="54" width="536" height="46" rx="24" fill="#13243a"/><circle cx="78" cy="77" r="5" fill="#ff6b7a"/><circle cx="96" cy="77" r="5" fill="#ffd27a"/><circle cx="114" cy="77" r="5" fill="#62e7a6"/><text x="142" y="82" fill="#f5f9ff" font-family="Segoe UI,Arial" font-size="15" font-weight="700">MirrorSync</text>
  <g font-family="Segoe UI,Arial"><text x="82" y="136" fill="#8ba2bf" font-size="11" font-weight="800">ANDROID DEVICES</text><rect x="438" y="116" width="120" height="34" rx="12" fill="#152a43" stroke="#5b7cff" stroke-opacity=".45"/><text x="498" y="138" text-anchor="middle" fill="#cbd8ff" font-size="11" font-weight="700">Refresh Devices</text><rect x="78" y="166" width="480" height="92" rx="18" fill="#0f2136" stroke="#2ce1d1" stroke-opacity=".42"/><circle cx="114" cy="212" r="20" fill="#2ce1d1" fill-opacity=".16"/><path d="M106 207h16v12h-16zm3-5-3-5m13 5 3-5" fill="none" stroke="#2ce1d1" stroke-width="2" stroke-linecap="round"/><text x="148" y="205" fill="#f5f9ff" font-size="16" font-weight="800">HP UTAMA</text><text x="148" y="228" fill="#8fa5c0" font-size="11">SM A055F | USB ADB</text><rect x="448" y="194" width="86" height="28" rx="14" fill="#62e7a6" fill-opacity=".14"/><text x="491" y="212" text-anchor="middle" fill="#62e7a6" font-size="10" font-weight="800">CONNECTED</text><rect x="338" y="288" width="220" height="48" rx="15" fill="url(#btn)"/><text x="448" y="318" text-anchor="middle" fill="#06101d" font-size="14" font-weight="900">Start Mirror</text><text x="82" y="316" fill="#a8bad0" font-size="12">Quality: High</text></g>
</svg>
