<svg xmlns="http://www.w3.org/2000/svg" viewBox="0 0 800 500" role="img" aria-labelledby="title desc">
  <title id="title">Instal via USB</title><desc id="desc">Menu Developer Options pada Xiaomi atau HyperOS dengan Instal via USB diaktifkan.</desc>
  <defs><linearGradient id="bg" x2="1" y2="1"><stop stop-color="#102b46"/><stop offset="1" stop-color="#081421"/></linearGradient><linearGradient id="a" x2="1"><stop stop-color="#31dfd1"/><stop offset="1" stop-color="#6682ff"/></linearGradient></defs>
  <rect width="800" height="500" rx="34" fill="url(#bg)"/><circle cx="705" cy="70" r="150" fill="#6682ff" opacity=".08"/>
  <rect x="154" y="44" width="492" height="412" rx="34" fill="#091727" stroke="#b6d8ff" stroke-opacity=".2" stroke-width="2"/>
  <text x="197" y="101" fill="#f5f9ff" font-family="Segoe UI,Arial" font-size="24" font-weight="700">Developer options</text><text x="197" y="139" fill="#31dfd1" font-family="Segoe UI,Arial" font-size="11" font-weight="800">DEBUGGING</text>
  <rect x="184" y="159" width="432" height="76" rx="15" fill="#10243a"/><text x="207" y="191" fill="#f5f9ff" font-family="Segoe UI,Arial" font-size="16" font-weight="700">USB debugging</text><text x="207" y="214" fill="#9fb1c8" font-family="Segoe UI,Arial" font-size="11">Allow debugging over USB</text><rect x="517" y="177" width="72" height="36" rx="18" fill="#31dfd1"/><circle cx="570" cy="195" r="14" fill="#071321"/>
  <rect x="184" y="251" width="432" height="94" rx="17" fill="url(#a)" opacity=".14" stroke="#31dfd1" stroke-width="2"/><text x="207" y="287" fill="#f5f9ff" font-family="Segoe UI,Arial" font-size="18" font-weight="700">Instal via USB</text><text x="207" y="314" fill="#9fb1c8" font-family="Segoe UI,Arial" font-size="11">Allow apps to be installed via USB</text><rect x="517" y="276" width="72" height="40" rx="20" fill="#31dfd1"/><circle cx="568" cy="296" r="15" fill="#071321"/><text x="532" y="340" fill="#9bf4c6" font-family="Segoe UI,Arial" font-size="10" font-weight="800">ON</text>
  <path d="M688 296h-52" stroke="#31dfd1" stroke-width="3" stroke-linecap="round"/><path d="m646 285-11 11 11 11" fill="none" stroke="#31dfd1" stroke-width="3" stroke-linecap="round" stroke-linejoin="round"/><text x="656" y="268" fill="#bffbf4" font-family="Segoe UI,Arial" font-size="12" font-weight="700">Jika tersedia</text>
  <rect x="184" y="369" width="432" height="50" rx="13" fill="#ffd47f" opacity=".08" stroke="#ffd47f" stroke-opacity=".2"/><text x="207" y="400" fill="#ffe0a0" font-family="Segoe UI,Arial" font-size="12" font-weight="700">Ikuti login akun atau izin sistem bila diminta HP.</text>
</svg>
