<svg xmlns="http://www.w3.org/2000/svg" viewBox="0 0 800 500" role="img" aria-labelledby="title desc">
  <title id="title">Keyboard Mode MirrorSync</title><desc id="desc">Pilihan Auto, SDK, UHID, Focus Mirror, dan Kirim Teks.</desc>
  <defs><linearGradient id="bg" x2="1" y2="1"><stop stop-color="#102b45"/><stop offset="1" stop-color="#081421"/></linearGradient></defs><rect width="800" height="500" rx="34" fill="url(#bg)"/>
  <rect x="71" y="60" width="658" height="380" rx="28" fill="#091727" stroke="#b6d8ff" stroke-opacity=".2"/><text x="110" y="112" fill="#f5f9ff" font-family="Segoe UI,Arial" font-size="22" font-weight="700">Keyboard &amp; Text Input</text><text x="110" y="153" fill="#9fb1c8" font-family="Segoe UI,Arial" font-size="11">KEYBOARD MODE</text>
  <g font-family="Segoe UI,Arial" font-size="13" font-weight="700"><rect x="110" y="169" width="104" height="45" rx="11" fill="#31dfd1"/><text x="145" y="197" fill="#071321">Auto</text><rect x="226" y="169" width="104" height="45" rx="11" fill="#14283e"/><text x="263" y="197" fill="#cbd7e7">SDK</text><rect x="342" y="169" width="104" height="45" rx="11" fill="#14283e"/><text x="375" y="197" fill="#cbd7e7">UHID</text><rect x="498" y="169" width="192" height="45" rx="11" fill="#6682ff" opacity=".22" stroke="#6682ff"/><text x="550" y="197" fill="#dbe2ff">Focus Mirror</text></g>
  <text x="110" y="264" fill="#9fb1c8" font-family="Segoe UI,Arial" font-size="11">KIRIM TEKS KE HP</text><rect x="110" y="280" width="580" height="58" rx="12" fill="#10243a" stroke="#b6d8ff" stroke-opacity=".2"/><text x="131" y="316" fill="#71879f" font-family="Segoe UI,Arial" font-size="14">Ketik atau masukkan autotext di sini...</text><rect x="110" y="350" width="277" height="43" rx="11" fill="#1a3048"/><text x="180" y="377" fill="#cbd7e7" font-family="Segoe UI,Arial" font-size="13" font-weight="700">Kirim sebagai Ketikan</text><rect x="400" y="350" width="290" height="43" rx="11" fill="#31dfd1"/><text x="490" y="377" fill="#071321" font-family="Segoe UI,Arial" font-size="13" font-weight="800">Paste ke Android</text><rect x="110" y="406" width="580" height="22" rx="8" fill="#6682ff" opacity=".12"/><text x="192" y="421" fill="#cbd4ff" font-family="Segoe UI,Arial" font-size="11" font-weight="700">Jika numpad/password tidak terbaca, coba UHID</text>
</svg>
