<svg xmlns="http://www.w3.org/2000/svg" viewBox="0 0 800 500" role="img" aria-labelledby="title desc">
  <title id="title">Pair device with pairing code</title><desc id="desc">Pairing IP, pairing port, code, dan form Pair Device.</desc>
  <defs><linearGradient id="bg" x2="1" y2="1"><stop stop-color="#102943"/><stop offset="1" stop-color="#081421"/></linearGradient></defs><rect width="800" height="500" rx="34" fill="url(#bg)"/>
  <rect x="54" y="72" width="318" height="356" rx="27" fill="#f5f9ff"/><text x="87" y="126" fill="#13263f" font-family="Segoe UI,Arial" font-size="20" font-weight="700">Pair with device</text><text x="87" y="165" fill="#607087" font-family="Segoe UI,Arial" font-size="12">Wi-Fi pairing code</text><text x="87" y="211" fill="#13263f" font-family="Consolas,monospace" font-size="36" font-weight="800">886 509</text><text x="87" y="265" fill="#607087" font-family="Segoe UI,Arial" font-size="12">IP address &amp; pairing port</text><rect x="87" y="283" width="250" height="48" rx="10" fill="#e5ecf4"/><text x="105" y="313" fill="#2d435c" font-family="Consolas,monospace" font-size="15">192.168.1.10:37123</text>
  <rect x="414" y="72" width="332" height="356" rx="27" fill="#091727" stroke="#b6d8ff" stroke-opacity=".2"/><text x="447" y="122" fill="#f5f9ff" font-family="Segoe UI,Arial" font-size="20" font-weight="700">Pair Device</text><g font-family="Segoe UI,Arial" font-size="11"><text x="447" y="164" fill="#9fb1c8">Pair IP</text><rect x="447" y="175" width="266" height="45" rx="10" fill="#10233a" stroke="#b6d8ff" stroke-opacity=".2"/><text x="462" y="203" fill="#cbd7e7">192.168.1.10</text><text x="447" y="249" fill="#9fb1c8">Pair Port</text><rect x="447" y="260" width="126" height="45" rx="10" fill="#10233a"/><text x="462" y="288" fill="#cbd7e7">37123</text><text x="590" y="249" fill="#9fb1c8">Pair Code</text><rect x="590" y="260" width="123" height="45" rx="10" fill="#10233a"/><text x="605" y="288" fill="#cbd7e7">886509</text></g><rect x="447" y="334" width="266" height="51" rx="12" fill="#31dfd1"/><text x="535" y="366" fill="#071321" font-family="Segoe UI,Arial" font-size="14" font-weight="800">Pair Device</text>
</svg>
