<svg xmlns="http://www.w3.org/2000/svg" viewBox="0 0 800 500" role="img" aria-labelledby="title desc">
  <title id="title">Retry Connection</title><desc id="desc">Window Android dengan frame terakhir dan overlay Retry Connection.</desc>
  <defs><linearGradient id="bg" x2="1" y2="1"><stop stop-color="#102943"/><stop offset="1" stop-color="#081421"/></linearGradient><linearGradient id="screen" x2="1" y2="1"><stop stop-color="#d7fff7"/><stop offset="1" stop-color="#bfcfff"/></linearGradient></defs><rect width="800" height="500" rx="34" fill="url(#bg)"/>
  <rect x="220" y="32" width="360" height="436" rx="24" fill="#071321" stroke="#b6d8ff" stroke-opacity=".25" stroke-width="2"/><rect x="220" y="32" width="360" height="48" rx="24" fill="#12253b"/><rect x="220" y="62" width="360" height="18" fill="#12253b"/><text x="245" y="62" fill="#f5f9ff" font-family="Segoe UI,Arial" font-size="13" font-weight="700">HP Utama</text><rect x="234" y="92" width="332" height="360" rx="16" fill="url(#screen)"/>
  <g opacity=".36"><circle cx="400" cy="188" r="56" fill="#6682ff"/><rect x="291" y="268" width="218" height="24" rx="12" fill="#203d62"/><rect x="322" y="308" width="156" height="14" rx="7" fill="#203d62"/></g>
  <rect x="254" y="211" width="292" height="187" rx="22" fill="#071a2b" fill-opacity=".93" stroke="#31dfd1" stroke-opacity=".34"/><path d="M366 268a41 41 0 1 1 8 49m-8-49v28h28" fill="none" stroke="#31dfd1" stroke-width="6" stroke-linecap="round" stroke-linejoin="round"/><text x="327" y="342" fill="#f5f9ff" font-family="Segoe UI,Arial" font-size="17" font-weight="700">Retry Connection</text><text x="323" y="365" fill="#9fb1c8" font-family="Segoe UI,Arial" font-size="11">Menunggu perangkat...</text><rect x="276" y="373" width="128" height="37" rx="9" fill="#31dfd1"/><text x="297" y="397" fill="#071321" font-family="Segoe UI,Arial" font-size="11" font-weight="800">Retry Sekarang</text><rect x="416" y="373" width="108" height="37" rx="9" fill="#172b41"/><text x="438" y="397" fill="#cbd7e7" font-family="Segoe UI,Arial" font-size="11">Tutup Mirror</text>
</svg>
