<svg xmlns="http://www.w3.org/2000/svg" viewBox="0 0 640 420" role="img" aria-labelledby="title desc">
  <title id="title">Wireless Debugging dalam satu WiFi</title><desc id="desc">Ilustrasi laptop dan ponsel terhubung ke WiFi yang sama dengan pairing code.</desc>
  <defs><linearGradient id="bg" x1="0" y1="0" x2="1" y2="1"><stop stop-color="#10213a"/><stop offset="1" stop-color="#07111f"/></linearGradient><linearGradient id="line" x1="0" x2="1"><stop stop-color="#2ce1d1"/><stop offset="1" stop-color="#9b6cff"/></linearGradient></defs>
  <rect width="640" height="420" rx="32" fill="url(#bg)"/><circle cx="320" cy="164" r="112" fill="#5b7cff" opacity=".08"/><g fill="none" stroke="url(#line)" stroke-width="5" stroke-linecap="round"><path d="M278 122a62 62 0 0 1 84 0"/><path d="M294 142a38 38 0 0 1 52 0"/><path d="M310 162a14 14 0 0 1 20 0"/></g><circle cx="320" cy="177" r="6" fill="#2ce1d1"/>
  <rect x="66" y="176" width="238" height="142" rx="18" fill="#091420" stroke="#8da8ca" stroke-opacity=".35" stroke-width="3"/><rect x="82" y="192" width="206" height="108" rx="8" fill="#10243a"/><rect x="46" y="318" width="278" height="16" rx="8" fill="#31445d"/><text x="185" y="244" text-anchor="middle" fill="#f5f9ff" font-family="Segoe UI,Arial" font-size="16" font-weight="800">MirrorSync</text><text x="185" y="270" text-anchor="middle" fill="#72f5e7" font-family="Segoe UI,Arial" font-size="12">192.168.1.20:42111</text>
  <rect x="420" y="160" width="146" height="218" rx="28" fill="#050b14" stroke="#8da8ca" stroke-opacity=".35" stroke-width="3"/><rect x="432" y="178" width="122" height="182" rx="18" fill="#101f33"/><g font-family="Segoe UI,Arial"><text x="493" y="214" text-anchor="middle" fill="#f5f9ff" font-size="13" font-weight="800">Wireless debugging</text><text x="450" y="246" fill="#90a5c0" font-size="9">Pairing code</text><rect x="448" y="256" width="90" height="42" rx="12" fill="#9b6cff" fill-opacity=".13" stroke="#9b6cff" stroke-opacity=".45"/><text x="493" y="282" text-anchor="middle" fill="#e4dbff" font-size="18" font-weight="900">123456</text><text x="493" y="330" text-anchor="middle" fill="#72f5e7" font-size="10">WiFi yang sama</text></g>
  <path d="M304 258C346 238 384 238 420 258" fill="none" stroke="#2ce1d1" stroke-width="3" stroke-dasharray="8 8"/>
</svg>
