<svg xmlns="http://www.w3.org/2000/svg" viewBox="0 0 800 500" role="img" aria-labelledby="title desc">
  <title id="title">Wireless Debugging</title><desc id="desc">HP dan laptop pada WiFi yang sama dengan Wireless Debugging aktif.</desc>
  <defs><linearGradient id="bg" x2="1" y2="1"><stop stop-color="#102b45"/><stop offset="1" stop-color="#081421"/></linearGradient></defs><rect width="800" height="500" rx="34" fill="url(#bg)"/>
  <rect x="84" y="120" width="272" height="185" rx="18" fill="#091727" stroke="#b6d8ff" stroke-opacity=".25" stroke-width="3"/><rect x="110" y="145" width="220" height="124" rx="8" fill="#112a43"/><path d="M52 334h336l-33-29H85z" fill="#1a3149"/><rect x="561" y="67" width="166" height="340" rx="29" fill="#071321" stroke="#b6d8ff" stroke-opacity=".25" stroke-width="3"/><rect x="580" y="110" width="128" height="244" rx="12" fill="#0e2438"/>
  <g fill="none" stroke="#31dfd1" stroke-width="9" stroke-linecap="round"><path d="M300 187a154 154 0 0 1 200 0"/><path d="M336 225a102 102 0 0 1 128 0"/><path d="M374 263a48 48 0 0 1 52 0"/></g><circle cx="400" cy="290" r="10" fill="#31dfd1"/>
  <rect x="592" y="183" width="104" height="68" rx="13" fill="#31dfd1" opacity=".12" stroke="#31dfd1"/><text x="608" y="211" fill="#bffbf4" font-family="Segoe UI,Arial" font-size="11" font-weight="700">WIRELESS</text><text x="606" y="233" fill="#f5f9ff" font-family="Segoe UI,Arial" font-size="13" font-weight="700">Debugging ON</text><text x="290" y="387" fill="#9fb1c8" font-family="Segoe UI,Arial" font-size="14">HP dan laptop/PC berada pada WiFi yang sama</text>
</svg>
